<svg width="20" height="20" viewBox="0 0 20 20" fill="none" xmlns="http://www.w3.org/2000/svg">
	<path d="M5.5 10C5.5 11.4441 5.82269 12.6009 6.61091 13.3891C7.39913 14.1773 8.55586 14.5 10 14.5C11.4441 14.5 12.6009 14.1773 13.3891 13.3891C14.1773 12.6009 14.5 11.4441 14.5 10C14.5 8.55586 14.1773 7.39913 13.3891 6.61091C12.6009 5.82269 11.4441 5.5 10 5.5C8.55586 5.5 7.39913 5.82269 6.61091 6.61091C5.82269 7.39913 5.5 8.55586 5.5 10ZM0.5 10C0.5 4.7533 4.7533 0.5 10 0.5C15.2467 0.5 19.5 4.7533 19.5 10C19.5 15.2467 15.2467 19.5 10 19.5C4.7533 19.5 0.5 15.2467 0.5 10Z" fill="#E5E7EB" stroke="#9CA3AF"></path>
</svg>