<svg width="272" height="108" viewBox="0 0 272 108" fill="none" xmlns="http://www.w3.org/2000/svg">
	<rect x="73.5" y="22.5" width="113" height="79" fill="#F5F3FF" stroke="#7C3AED"></rect>
	<path d="M127.847 16.1534C127.432 16.1534 127.055 16.0753 126.717 15.919C126.379 15.7599 126.111 15.5312 125.912 15.233C125.713 14.9318 125.614 14.5682 125.614 14.142C125.614 13.767 125.688 13.4631 125.835 13.2301C125.983 12.9943 126.18 12.8097 126.428 12.6761C126.675 12.5426 126.947 12.4432 127.246 12.3778C127.547 12.3097 127.849 12.2557 128.153 12.2159C128.551 12.1648 128.874 12.1264 129.121 12.1009C129.371 12.0724 129.553 12.0256 129.666 11.9602C129.783 11.8949 129.841 11.7812 129.841 11.6193V11.5852C129.841 11.1648 129.726 10.8381 129.496 10.6051C129.268 10.3722 128.923 10.2557 128.46 10.2557C127.98 10.2557 127.604 10.3608 127.331 10.571C127.058 10.7812 126.866 11.0057 126.756 11.2443L125.801 10.9034C125.972 10.5057 126.199 10.196 126.483 9.97443C126.77 9.75 127.082 9.59375 127.42 9.50568C127.761 9.41477 128.097 9.36932 128.426 9.36932C128.636 9.36932 128.878 9.39489 129.151 9.44602C129.426 9.49432 129.692 9.59517 129.947 9.74858C130.206 9.90199 130.42 10.1335 130.591 10.4432C130.761 10.7528 130.847 11.1676 130.847 11.6875V16H129.841V15.1136H129.79C129.722 15.2557 129.608 15.4077 129.449 15.5696C129.29 15.7315 129.078 15.8693 128.814 15.983C128.55 16.0966 128.227 16.1534 127.847 16.1534ZM128 15.25C128.398 15.25 128.733 15.1719 129.006 15.0156C129.281 14.8594 129.489 14.6577 129.628 14.4105C129.77 14.1634 129.841 13.9034 129.841 13.6307V12.7102C129.798 12.7614 129.705 12.8082 129.56 12.8509C129.418 12.8906 129.253 12.9261 129.065 12.9574C128.881 12.9858 128.7 13.0114 128.524 13.0341C128.351 13.054 128.21 13.071 128.102 13.0852C127.841 13.1193 127.597 13.1747 127.369 13.2514C127.145 13.3253 126.963 13.4375 126.824 13.5881C126.688 13.7358 126.619 13.9375 126.619 14.1932C126.619 14.5426 126.749 14.8068 127.007 14.9858C127.268 15.1619 127.599 15.25 128 15.25Z" fill="#7C3AED"></path>
	<path d="M127.847 16.1534C127.432 16.1534 127.055 16.0753 126.717 15.919C126.379 15.7599 126.111 15.5312 125.912 15.233C125.713 14.9318 125.614 14.5682 125.614 14.142C125.614 13.767 125.688 13.4631 125.835 13.2301C125.983 12.9943 126.18 12.8097 126.428 12.6761C126.675 12.5426 126.947 12.4432 127.246 12.3778C127.547 12.3097 127.849 12.2557 128.153 12.2159C128.551 12.1648 128.874 12.1264 129.121 12.1009C129.371 12.0724 129.553 12.0256 129.666 11.9602C129.783 11.8949 129.841 11.7812 129.841 11.6193V11.5852C129.841 11.1648 129.726 10.8381 129.496 10.6051C129.268 10.3722 128.923 10.2557 128.46 10.2557C127.98 10.2557 127.604 10.3608 127.331 10.571C127.058 10.7812 126.866 11.0057 126.756 11.2443L125.801 10.9034C125.972 10.5057 126.199 10.196 126.483 9.97443C126.77 9.75 127.082 9.59375 127.42 9.50568C127.761 9.41477 128.097 9.36932 128.426 9.36932C128.636 9.36932 128.878 9.39489 129.151 9.44602C129.426 9.49432 129.692 9.59517 129.947 9.74858C130.206 9.90199 130.42 10.1335 130.591 10.4432C130.761 10.7528 130.847 11.1676 130.847 11.6875V16H129.841V15.1136H129.79C129.722 15.2557 129.608 15.4077 129.449 15.5696C129.29 15.7315 129.078 15.8693 128.814 15.983C128.55 16.0966 128.227 16.1534 127.847 16.1534ZM128 15.25C128.398 15.25 128.733 15.1719 129.006 15.0156C129.281 14.8594 129.489 14.6577 129.628 14.4105C129.77 14.1634 129.841 13.9034 129.841 13.6307V12.7102C129.798 12.7614 129.705 12.8082 129.56 12.8509C129.418 12.8906 129.253 12.9261 129.065 12.9574C128.881 12.9858 128.7 13.0114 128.524 13.0341C128.351 13.054 128.21 13.071 128.102 13.0852C127.841 13.1193 127.597 13.1747 127.369 13.2514C127.145 13.3253 126.963 13.4375 126.824 13.5881C126.688 13.7358 126.619 13.9375 126.619 14.1932C126.619 14.5426 126.749 14.8068 127.007 14.9858C127.268 15.1619 127.599 15.25 128 15.25Z" fill="#7C3AED"></path>
	<path d="M192.057 66V57.2727H193.062V60.4943H193.148C193.222 60.3807 193.324 60.2358 193.455 60.0597C193.588 59.8807 193.778 59.7216 194.026 59.5824C194.276 59.4403 194.614 59.3693 195.04 59.3693C195.591 59.3693 196.077 59.5071 196.497 59.7827C196.918 60.0582 197.246 60.4489 197.482 60.9545C197.717 61.4602 197.835 62.0568 197.835 62.7443C197.835 63.4375 197.717 64.0384 197.482 64.5469C197.246 65.0526 196.919 65.4446 196.501 65.723C196.084 65.9986 195.602 66.1364 195.057 66.1364C194.636 66.1364 194.3 66.0668 194.047 65.9276C193.794 65.7855 193.599 65.625 193.463 65.446C193.327 65.2642 193.222 65.1136 193.148 64.9943H193.028V66H192.057ZM193.045 62.7273C193.045 63.2216 193.118 63.6577 193.263 64.0355C193.408 64.4105 193.619 64.7045 193.898 64.9176C194.176 65.1278 194.517 65.233 194.92 65.233C195.341 65.233 195.692 65.1222 195.973 64.9006C196.257 64.6761 196.47 64.375 196.612 63.9972C196.757 63.6165 196.83 63.1932 196.83 62.7273C196.83 62.267 196.759 61.8523 196.616 61.483C196.477 61.1108 196.266 60.8168 195.982 60.6009C195.7 60.3821 195.347 60.2727 194.92 60.2727C194.511 60.2727 194.168 60.3764 193.889 60.5838C193.611 60.7884 193.401 61.0753 193.259 61.4446C193.116 61.8111 193.045 62.2386 193.045 62.7273Z" fill="#7C3AED"></path>
</svg>