<svg width="272" height="108" viewBox="0 0 272 120" fill="none" xmlns="http://www.w3.org/2000/svg" data-x-show="tabs==='six'">
	<path d="M134.847 10.1534C134.432 10.1534 134.055 10.0753 133.717 9.91903C133.379 9.75994 133.111 9.53125 132.912 9.23295C132.713 8.93182 132.614 8.56818 132.614 8.14205C132.614 7.76705 132.688 7.46307 132.835 7.23011C132.983 6.99432 133.18 6.80966 133.428 6.67614C133.675 6.54261 133.947 6.44318 134.246 6.37784C134.547 6.30966 134.849 6.25568 135.153 6.21591C135.551 6.16477 135.874 6.12642 136.121 6.10085C136.371 6.07244 136.553 6.02557 136.666 5.96023C136.783 5.89489 136.841 5.78125 136.841 5.61932V5.58523C136.841 5.16477 136.726 4.83807 136.496 4.60511C136.268 4.37216 135.923 4.25568 135.46 4.25568C134.98 4.25568 134.604 4.3608 134.331 4.57102C134.058 4.78125 133.866 5.00568 133.756 5.24432L132.801 4.90341C132.972 4.50568 133.199 4.19602 133.483 3.97443C133.77 3.75 134.082 3.59375 134.42 3.50568C134.761 3.41477 135.097 3.36932 135.426 3.36932C135.636 3.36932 135.878 3.39489 136.151 3.44602C136.426 3.49432 136.692 3.59517 136.947 3.74858C137.206 3.90199 137.42 4.13352 137.591 4.44318C137.761 4.75284 137.847 5.16761 137.847 5.6875V10H136.841V9.11364H136.79C136.722 9.25568 136.608 9.40767 136.449 9.5696C136.29 9.73153 136.078 9.86932 135.814 9.98295C135.55 10.0966 135.227 10.1534 134.847 10.1534ZM135 9.25C135.398 9.25 135.733 9.17188 136.006 9.01562C136.281 8.85938 136.489 8.65767 136.628 8.41051C136.77 8.16335 136.841 7.90341 136.841 7.63068V6.71023C136.798 6.76136 136.705 6.80824 136.56 6.85085C136.418 6.89062 136.253 6.92614 136.065 6.95739C135.881 6.9858 135.7 7.01136 135.524 7.03409C135.351 7.05398 135.21 7.07102 135.102 7.08523C134.841 7.11932 134.597 7.17472 134.369 7.25142C134.145 7.32528 133.963 7.4375 133.824 7.58807C133.688 7.7358 133.619 7.9375 133.619 8.19318C133.619 8.54261 133.749 8.80682 134.007 8.9858C134.268 9.16193 134.599 9.25 135 9.25Z" fill="#7C3AED"></path>
	<path d="M133.057 118V109.273H134.062V112.494H134.148C134.222 112.381 134.324 112.236 134.455 112.06C134.588 111.881 134.778 111.722 135.026 111.582C135.276 111.44 135.614 111.369 136.04 111.369C136.591 111.369 137.077 111.507 137.497 111.783C137.918 112.058 138.246 112.449 138.482 112.955C138.717 113.46 138.835 114.057 138.835 114.744C138.835 115.438 138.717 116.038 138.482 116.547C138.246 117.053 137.919 117.445 137.501 117.723C137.084 117.999 136.602 118.136 136.057 118.136C135.636 118.136 135.3 118.067 135.047 117.928C134.794 117.786 134.599 117.625 134.463 117.446C134.327 117.264 134.222 117.114 134.148 116.994H134.028V118H133.057ZM134.045 114.727C134.045 115.222 134.118 115.658 134.263 116.036C134.408 116.411 134.619 116.705 134.898 116.918C135.176 117.128 135.517 117.233 135.92 117.233C136.341 117.233 136.692 117.122 136.973 116.901C137.257 116.676 137.47 116.375 137.612 115.997C137.757 115.616 137.83 115.193 137.83 114.727C137.83 114.267 137.759 113.852 137.616 113.483C137.477 113.111 137.266 112.817 136.982 112.601C136.7 112.382 136.347 112.273 135.92 112.273C135.511 112.273 135.168 112.376 134.889 112.584C134.611 112.788 134.401 113.075 134.259 113.445C134.116 113.811 134.045 114.239 134.045 114.727Z" fill="#7C3AED"></path>
	<path d="M76.7138 103.5L108.35 16.5H163.65L195.286 103.5H76.7138Z" fill="#F5F3FF" stroke="#7C3AED"></path>
	<path d="M112.576 102.424C112.81 102.659 113.19 102.659 113.424 102.424L117.243 98.6059C117.477 98.3716 117.477 97.9917 117.243 97.7574C117.008 97.523 116.628 97.523 116.394 97.7574L113 101.151L109.606 97.7574C109.372 97.523 108.992 97.523 108.757 97.7574C108.523 97.9917 108.523 98.3716 108.757 98.6059L112.576 102.424ZM113.424 17.5757C113.19 17.3414 112.81 17.3414 112.576 17.5757L108.757 21.3941C108.523 21.6284 108.523 22.0083 108.757 22.2426C108.992 22.477 109.372 22.477 109.606 22.2426L113 18.8485L116.394 22.2426C116.628 22.477 117.008 22.477 117.243 22.2426C117.477 22.0083 117.477 21.6284 117.243 21.3941L113.424 17.5757ZM113.6 102L113.6 18L112.4 18L112.4 102L113.6 102Z" fill="#7C3AED"></path>
	<path d="M118.926 60.0625V64H117.92V55.2727H118.926V58.4773H119.011C119.165 58.1392 119.395 57.8707 119.702 57.6719C120.011 57.4702 120.423 57.3693 120.938 57.3693C121.384 57.3693 121.774 57.4588 122.109 57.6378C122.445 57.8139 122.705 58.0852 122.889 58.4517C123.077 58.8153 123.17 59.2784 123.17 59.8409V64H122.165V59.9091C122.165 59.3892 122.03 58.9872 121.76 58.7031C121.493 58.4162 121.122 58.2727 120.648 58.2727C120.318 58.2727 120.023 58.3423 119.761 58.4815C119.503 58.6207 119.298 58.8239 119.148 59.0909C119 59.358 118.926 59.6818 118.926 60.0625Z" fill="#7C3AED"></path>
</svg>