<svg width="272" height="108" viewBox="0 0 272 108" fill="none" xmlns="http://www.w3.org/2000/svg" data-x-show="tabs==='three'">
	<circle cx="136" cy="54" r="51.5" fill="#F5F3FF" stroke="#7C3AED"></circle>
	<path d="M85.5757 53.5757C85.3414 53.8101 85.3414 54.1899 85.5757 54.4243L89.3941 58.2426C89.6284 58.477 90.0083 58.477 90.2426 58.2426C90.477 58.0083 90.477 57.6284 90.2426 57.3941L86.8485 54L90.2426 50.6059C90.477 50.3716 90.477 49.9917 90.2426 49.7574C90.0083 49.523 89.6284 49.523 89.3941 49.7574L85.5757 53.5757ZM186.424 54.4243C186.659 54.1899 186.659 53.8101 186.424 53.5757L182.606 49.7574C182.372 49.523 181.992 49.523 181.757 49.7574C181.523 49.9917 181.523 50.3716 181.757 50.6059L185.151 54L181.757 57.3941C181.523 57.6284 181.523 58.0083 181.757 58.2426C181.992 58.477 182.372 58.477 182.606 58.2426L186.424 54.4243ZM86 54.6H186V53.4H86V54.6Z" fill="#7C3AED"></path>
	<path d="M135.392 44.1364C134.847 44.1364 134.365 43.9986 133.947 43.723C133.53 43.4446 133.203 43.0526 132.967 42.5469C132.732 42.0384 132.614 41.4375 132.614 40.7443C132.614 40.0568 132.732 39.4602 132.967 38.9545C133.203 38.4489 133.531 38.0582 133.952 37.7827C134.372 37.5071 134.858 37.3693 135.409 37.3693C135.835 37.3693 136.172 37.4403 136.419 37.5824C136.669 37.7216 136.859 37.8807 136.99 38.0597C137.124 38.2358 137.227 38.3807 137.301 38.4943H137.386V35.2727H138.392V44H137.42V42.9943H137.301C137.227 43.1136 137.122 43.2642 136.986 43.446C136.849 43.625 136.655 43.7855 136.402 43.9276C136.149 44.0668 135.813 44.1364 135.392 44.1364ZM135.528 43.233C135.932 43.233 136.273 43.1278 136.551 42.9176C136.83 42.7045 137.041 42.4105 137.186 42.0355C137.331 41.6577 137.403 41.2216 137.403 40.7273C137.403 40.2386 137.332 39.8111 137.19 39.4446C137.048 39.0753 136.838 38.7884 136.56 38.5838C136.281 38.3764 135.938 38.2727 135.528 38.2727C135.102 38.2727 134.747 38.3821 134.463 38.6009C134.182 38.8168 133.97 39.1108 133.828 39.483C133.689 39.8523 133.619 40.267 133.619 40.7273C133.619 41.1932 133.69 41.6165 133.832 41.9972C133.977 42.375 134.19 42.6761 134.472 42.9006C134.756 43.1222 135.108 43.233 135.528 43.233Z" fill="#7C3AED"></path>
</svg>