<svg width="272" height="108" viewBox="0 0 272 108" fill="none" xmlns="http://www.w3.org/2000/svg">
	<circle cx="136" cy="54" r="39.5" fill="#F5F3FF" stroke="#7C3AED" />
	<path d="M174.354 55.3536C174.549 55.1583 174.549 54.8417 174.354 54.6464L171.172 51.4645C170.976 51.2692 170.66 51.2692 170.464 51.4645C170.269 51.6597 170.269 51.9763 170.464 52.1716L173.293 55L170.464 57.8284C170.269 58.0237 170.269 58.3403 170.464 58.5355C170.66 58.7308 170.976 58.7308 171.172 58.5355L174.354 55.3536ZM158.646 54.6464C158.451 54.8417 158.451 55.1583 158.646 55.3536L161.828 58.5355C162.024 58.7308 162.34 58.7308 162.536 58.5355C162.731 58.3403 162.731 58.0237 162.536 57.8284L159.707 55L162.536 52.1716C162.731 51.9763 162.731 51.6597 162.536 51.4645C162.34 51.2692 162.024 51.2692 161.828 51.4645L158.646 54.6464ZM174 54.5H159V55.5H174V54.5Z" fill="#7C3AED" />
	<circle cx="136" cy="54" r="21.5" fill="#fff" stroke="#7C3AED" />
	<path d="M163.403 48L161.409 41.4545H162.466L163.881 46.4659H163.949L165.347 41.4545H166.42L167.801 46.4489H167.869L169.284 41.4545H170.341L168.347 48H167.358L165.926 42.9716H165.824L164.392 48H163.403Z" fill="#7C3AED" />
	<path d="M115.576 54.5757C115.341 54.8101 115.341 55.1899 115.576 55.4243L119.394 59.2426C119.628 59.477 120.008 59.477 120.243 59.2426C120.477 59.0083 120.477 58.6284 120.243 58.3941L116.849 55L120.243 51.6059C120.477 51.3716 120.477 50.9917 120.243 50.7574C120.008 50.523 119.628 50.523 119.394 50.7574L115.576 54.5757ZM156.424 55.4243C156.659 55.19 156.659 54.8101 156.424 54.5757L152.606 50.7574C152.372 50.523 151.992 50.523 151.757 50.7574C151.523 50.9917 151.523 51.3716 151.757 51.6059L155.151 55L151.757 58.3941C151.523 58.6284 151.523 59.0083 151.757 59.2426C151.992 59.477 152.372 59.477 152.606 59.2426L156.424 55.4243ZM116 55.6L156 55.6L156 54.4L116 54.4L116 55.6Z" fill="#7C3AED" />
	<path d="M134.92 68V61.4545H135.926V68H134.92ZM135.432 60.3636C135.236 60.3636 135.067 60.2969 134.925 60.1634C134.786 60.0298 134.716 59.8693 134.716 59.6818C134.716 59.4943 134.786 59.3338 134.925 59.2003C135.067 59.0668 135.236 59 135.432 59C135.628 59 135.795 59.0668 135.935 59.2003C136.077 59.3338 136.148 59.4943 136.148 59.6818C136.148 59.8693 136.077 60.0298 135.935 60.1634C135.795 60.2969 135.628 60.3636 135.432 60.3636Z" fill="#7C3AED" />
</svg>