<svg width="272" height="108" viewBox="0 0 272 111" fill="none" xmlns="http://www.w3.org/2000/svg" data-x-show="tabs==='five'">
	<path d="M98.8466 52.1534C98.4318 52.1534 98.0554 52.0753 97.7173 51.919C97.3793 51.7599 97.1108 51.5312 96.9119 51.233C96.7131 50.9318 96.6136 50.5682 96.6136 50.142C96.6136 49.767 96.6875 49.4631 96.8352 49.2301C96.983 48.9943 97.1804 48.8097 97.4276 48.6761C97.6747 48.5426 97.9474 48.4432 98.2457 48.3778C98.5469 48.3097 98.8494 48.2557 99.1534 48.2159C99.5511 48.1648 99.8736 48.1264 100.121 48.1009C100.371 48.0724 100.553 48.0256 100.666 47.9602C100.783 47.8949 100.841 47.7812 100.841 47.6193V47.5852C100.841 47.1648 100.726 46.8381 100.496 46.6051C100.268 46.3722 99.9233 46.2557 99.4602 46.2557C98.9801 46.2557 98.6037 46.3608 98.331 46.571C98.0582 46.7812 97.8665 47.0057 97.7557 47.2443L96.8011 46.9034C96.9716 46.5057 97.1989 46.196 97.483 45.9744C97.7699 45.75 98.0824 45.5937 98.4205 45.5057C98.7614 45.4148 99.0966 45.3693 99.4261 45.3693C99.6364 45.3693 99.8778 45.3949 100.151 45.446C100.426 45.4943 100.692 45.5952 100.947 45.7486C101.206 45.902 101.42 46.1335 101.591 46.4432C101.761 46.7528 101.847 47.1676 101.847 47.6875V52H100.841V51.1136H100.79C100.722 51.2557 100.608 51.4077 100.449 51.5696C100.29 51.7315 100.078 51.8693 99.8139 51.983C99.5497 52.0966 99.2273 52.1534 98.8466 52.1534ZM99 51.25C99.3977 51.25 99.733 51.1719 100.006 51.0156C100.281 50.8594 100.489 50.6577 100.628 50.4105C100.77 50.1634 100.841 49.9034 100.841 49.6307V48.7102C100.798 48.7614 100.705 48.8082 100.56 48.8509C100.418 48.8906 100.253 48.9261 100.065 48.9574C99.8807 48.9858 99.7003 49.0114 99.5241 49.0341C99.3509 49.054 99.2102 49.071 99.1023 49.0852C98.8409 49.1193 98.5966 49.1747 98.3693 49.2514C98.1449 49.3253 97.9631 49.4375 97.8239 49.5881C97.6875 49.7358 97.6193 49.9375 97.6193 50.1932C97.6193 50.5426 97.7486 50.8068 98.0071 50.9858C98.2685 51.1619 98.5994 51.25 99 51.25Z" fill="#7C3AED"></path>
	<path d="M169.057 52V43.2727H170.062V46.4943H170.148C170.222 46.3807 170.324 46.2358 170.455 46.0597C170.588 45.8807 170.778 45.7216 171.026 45.5824C171.276 45.4403 171.614 45.3693 172.04 45.3693C172.591 45.3693 173.077 45.5071 173.497 45.7827C173.918 46.0582 174.246 46.4489 174.482 46.9545C174.717 47.4602 174.835 48.0568 174.835 48.7443C174.835 49.4375 174.717 50.0384 174.482 50.5469C174.246 51.0526 173.919 51.4446 173.501 51.723C173.084 51.9986 172.602 52.1364 172.057 52.1364C171.636 52.1364 171.3 52.0668 171.047 51.9276C170.794 51.7855 170.599 51.625 170.463 51.446C170.327 51.2642 170.222 51.1136 170.148 50.9943H170.028V52H169.057ZM170.045 48.7273C170.045 49.2216 170.118 49.6577 170.263 50.0355C170.408 50.4105 170.619 50.7045 170.898 50.9176C171.176 51.1278 171.517 51.233 171.92 51.233C172.341 51.233 172.692 51.1222 172.973 50.9006C173.257 50.6761 173.47 50.375 173.612 49.9972C173.757 49.6165 173.83 49.1932 173.83 48.7273C173.83 48.267 173.759 47.8523 173.616 47.483C173.477 47.1108 173.266 46.8168 172.982 46.6009C172.7 46.3821 172.347 46.2727 171.92 46.2727C171.511 46.2727 171.168 46.3764 170.889 46.5838C170.611 46.7884 170.401 47.0753 170.259 47.4446C170.116 47.8111 170.045 48.2386 170.045 48.7273Z" fill="#7C3AED"></path>
	<path d="M135.58 110.136C134.966 110.136 134.438 109.991 133.994 109.702C133.551 109.412 133.21 109.013 132.972 108.504C132.733 107.996 132.614 107.415 132.614 106.761C132.614 106.097 132.736 105.51 132.98 105.001C133.227 104.49 133.571 104.091 134.011 103.804C134.455 103.514 134.972 103.369 135.562 103.369C136.023 103.369 136.438 103.455 136.807 103.625C137.176 103.795 137.479 104.034 137.714 104.341C137.95 104.648 138.097 105.006 138.153 105.415H137.148C137.071 105.116 136.901 104.852 136.636 104.622C136.375 104.389 136.023 104.273 135.58 104.273C135.188 104.273 134.844 104.375 134.548 104.58C134.256 104.781 134.027 105.067 133.862 105.436C133.7 105.803 133.619 106.233 133.619 106.727C133.619 107.233 133.699 107.673 133.858 108.048C134.02 108.423 134.247 108.714 134.54 108.922C134.835 109.129 135.182 109.233 135.58 109.233C135.841 109.233 136.078 109.188 136.291 109.097C136.504 109.006 136.685 108.875 136.832 108.705C136.98 108.534 137.085 108.33 137.148 108.091H138.153C138.097 108.477 137.956 108.825 137.732 109.135C137.51 109.442 137.216 109.686 136.849 109.868C136.486 110.047 136.063 110.136 135.58 110.136Z" fill="#7C3AED"></path>
	<path d="M84.8395 95.5L136 1.0498L187.161 95.5H84.8395Z" fill="#F5F3FF" stroke="#7C3AED"></path>
</svg>