<svg width="272" height="108" viewBox="0 0 272 108" fill="none" xmlns="http://www.w3.org/2000/svg">
	<circle cx="136" cy="40" r="39.5" fill="#F5F3FF" stroke="#7C3AED" />
	<circle cx="136" cy="40" r="21.5" fill="#fff" stroke="#7C3AED" />
	<path d="M95.5757 87.5757C95.3414 87.8101 95.3414 88.1899 95.5757 88.4243L99.3941 92.2426C99.6284 92.477 100.008 92.477 100.243 92.2426C100.477 92.0083 100.477 91.6284 100.243 91.3941L96.8485 88L100.243 84.6059C100.477 84.3716 100.477 83.9917 100.243 83.7574C100.008 83.523 99.6284 83.523 99.3941 83.7574L95.5757 87.5757ZM176.424 88.4243C176.659 88.1899 176.659 87.8101 176.424 87.5757L172.606 83.7574C172.372 83.523 171.992 83.523 171.757 83.7574C171.523 83.9917 171.523 84.3716 171.757 84.6059L175.151 88L171.757 91.3941C171.523 91.6284 171.523 92.0083 171.757 92.2426C171.992 92.477 172.372 92.477 172.606 92.2426L176.424 88.4243ZM96 88.6H176V87.4H96V88.6Z" fill="#7C3AED" />
	<path d="M115.576 40.5757C115.341 40.8101 115.341 41.1899 115.576 41.4243L119.394 45.2426C119.628 45.477 120.008 45.477 120.243 45.2426C120.477 45.0083 120.477 44.6284 120.243 44.3941L116.849 41L120.243 37.6059C120.477 37.3716 120.477 36.9917 120.243 36.7574C120.008 36.523 119.628 36.523 119.394 36.7574L115.576 40.5757ZM156.424 41.4243C156.659 41.19 156.659 40.8101 156.424 40.5757L152.606 36.7574C152.372 36.523 151.992 36.523 151.757 36.7574C151.523 36.9917 151.523 37.3716 151.757 37.6059L155.151 41L151.757 44.3941C151.523 44.6284 151.523 45.0083 151.757 45.2426C151.992 45.477 152.372 45.477 152.606 45.2426L156.424 41.4243ZM116 41.6L156 41.6L156 40.4L116 40.4L116 41.6Z" fill="#7C3AED" />
	<path d="M135.392 106.136C134.847 106.136 134.365 105.999 133.947 105.723C133.53 105.445 133.203 105.053 132.967 104.547C132.732 104.038 132.614 103.438 132.614 102.744C132.614 102.057 132.732 101.46 132.967 100.955C133.203 100.449 133.531 100.058 133.952 99.7827C134.372 99.5071 134.858 99.3693 135.409 99.3693C135.835 99.3693 136.172 99.4403 136.419 99.5824C136.669 99.7216 136.859 99.8807 136.99 100.06C137.124 100.236 137.227 100.381 137.301 100.494H137.386V97.2727H138.392V106H137.42V104.994H137.301C137.227 105.114 137.122 105.264 136.986 105.446C136.849 105.625 136.655 105.786 136.402 105.928C136.149 106.067 135.813 106.136 135.392 106.136ZM135.528 105.233C135.932 105.233 136.273 105.128 136.551 104.918C136.83 104.705 137.041 104.411 137.186 104.036C137.331 103.658 137.403 103.222 137.403 102.727C137.403 102.239 137.332 101.811 137.19 101.445C137.048 101.075 136.838 100.788 136.56 100.584C136.281 100.376 135.938 100.273 135.528 100.273C135.102 100.273 134.747 100.382 134.463 100.601C134.182 100.817 133.97 101.111 133.828 101.483C133.689 101.852 133.619 102.267 133.619 102.727C133.619 103.193 133.69 103.616 133.832 103.997C133.977 104.375 134.19 104.676 134.472 104.901C134.756 105.122 135.108 105.233 135.528 105.233Z" fill="#7C3AED" />
	<path d="M134.92 54V47.4545H135.926V54H134.92ZM135.432 46.3636C135.236 46.3636 135.067 46.2969 134.925 46.1634C134.786 46.0298 134.716 45.8693 134.716 45.6818C134.716 45.4943 134.786 45.3338 134.925 45.2003C135.067 45.0668 135.236 45 135.432 45C135.628 45 135.795 45.0668 135.935 45.2003C136.077 45.3338 136.148 45.4943 136.148 45.6818C136.148 45.8693 136.077 46.0298 135.935 46.1634C135.795 46.2969 135.628 46.3636 135.432 46.3636Z" fill="#7C3AED" />
</svg>