<svg width="272" height="108" viewBox="0 0 272 108" fill="none" xmlns="http://www.w3.org/2000/svg">
	<rect x="79.5" y="14.5" width="113" height="79" fill="#F5F3FF" stroke="#7C3AED" />
	<rect x="95.5" y="30.5" width="81" height="47" fill="#fff" stroke="#7C3AED" />
	<path d="M133.847 42.1534C133.432 42.1534 133.055 42.0753 132.717 41.919C132.379 41.7599 132.111 41.5312 131.912 41.233C131.713 40.9318 131.614 40.5682 131.614 40.142C131.614 39.767 131.688 39.4631 131.835 39.2301C131.983 38.9943 132.18 38.8097 132.428 38.6761C132.675 38.5426 132.947 38.4432 133.246 38.3778C133.547 38.3097 133.849 38.2557 134.153 38.2159C134.551 38.1648 134.874 38.1264 135.121 38.1009C135.371 38.0724 135.553 38.0256 135.666 37.9602C135.783 37.8949 135.841 37.7812 135.841 37.6193V37.5852C135.841 37.1648 135.726 36.8381 135.496 36.6051C135.268 36.3722 134.923 36.2557 134.46 36.2557C133.98 36.2557 133.604 36.3608 133.331 36.571C133.058 36.7812 132.866 37.0057 132.756 37.2443L131.801 36.9034C131.972 36.5057 132.199 36.196 132.483 35.9744C132.77 35.75 133.082 35.5937 133.42 35.5057C133.761 35.4148 134.097 35.3693 134.426 35.3693C134.636 35.3693 134.878 35.3949 135.151 35.446C135.426 35.4943 135.692 35.5952 135.947 35.7486C136.206 35.902 136.42 36.1335 136.591 36.4432C136.761 36.7528 136.847 37.1676 136.847 37.6875V42H135.841V41.1136H135.79C135.722 41.2557 135.608 41.4077 135.449 41.5696C135.29 41.7315 135.078 41.8693 134.814 41.983C134.55 42.0966 134.227 42.1534 133.847 42.1534ZM134 41.25C134.398 41.25 134.733 41.1719 135.006 41.0156C135.281 40.8594 135.489 40.6577 135.628 40.4105C135.77 40.1634 135.841 39.9034 135.841 39.6307V38.7102C135.798 38.7614 135.705 38.8082 135.56 38.8509C135.418 38.8906 135.253 38.9261 135.065 38.9574C134.881 38.9858 134.7 39.0114 134.524 39.0341C134.351 39.054 134.21 39.071 134.102 39.0852C133.841 39.1193 133.597 39.1747 133.369 39.2514C133.145 39.3253 132.963 39.4375 132.824 39.5881C132.688 39.7358 132.619 39.9375 132.619 40.1932C132.619 40.5426 132.749 40.8068 133.007 40.9858C133.268 41.1619 133.599 41.25 134 41.25Z" fill="#7C3AED" />
	<path d="M136.403 89L134.409 82.4545H135.466L136.881 87.4659H136.949L138.347 82.4545H139.42L140.801 87.4489H140.869L142.284 82.4545H143.341L141.347 89H140.358L138.926 83.9716H138.824L137.392 89H136.403Z" fill="#7C3AED" />
	<path d="M166.057 58V49.2727H167.062V52.4943H167.148C167.222 52.3807 167.324 52.2358 167.455 52.0597C167.588 51.8807 167.778 51.7216 168.026 51.5824C168.276 51.4403 168.614 51.3693 169.04 51.3693C169.591 51.3693 170.077 51.5071 170.497 51.7827C170.918 52.0582 171.246 52.4489 171.482 52.9545C171.717 53.4602 171.835 54.0568 171.835 54.7443C171.835 55.4375 171.717 56.0384 171.482 56.5469C171.246 57.0526 170.919 57.4446 170.501 57.723C170.084 57.9986 169.602 58.1364 169.057 58.1364C168.636 58.1364 168.3 58.0668 168.047 57.9276C167.794 57.7855 167.599 57.625 167.463 57.446C167.327 57.2642 167.222 57.1136 167.148 56.9943H167.028V58H166.057ZM167.045 54.7273C167.045 55.2216 167.118 55.6577 167.263 56.0355C167.408 56.4105 167.619 56.7045 167.898 56.9176C168.176 57.1278 168.517 57.233 168.92 57.233C169.341 57.233 169.692 57.1222 169.973 56.9006C170.257 56.6761 170.47 56.375 170.612 55.9972C170.757 55.6165 170.83 55.1932 170.83 54.7273C170.83 54.267 170.759 53.8523 170.616 53.483C170.477 53.1108 170.266 52.8168 169.982 52.6009C169.7 52.3821 169.347 52.2727 168.92 52.2727C168.511 52.2727 168.168 52.3764 167.889 52.5838C167.611 52.7884 167.401 53.0753 167.259 53.4446C167.116 53.8111 167.045 54.2386 167.045 54.7273Z" fill="#7C3AED" />
	<path d="M128.354 78.6464C128.158 78.4512 127.842 78.4512 127.646 78.6464L124.464 81.8284C124.269 82.0237 124.269 82.3403 124.464 82.5355C124.66 82.7308 124.976 82.7308 125.172 82.5355L128 79.7071L130.828 82.5355C131.024 82.7308 131.34 82.7308 131.536 82.5355C131.731 82.3403 131.731 82.0237 131.536 81.8284L128.354 78.6464ZM127.646 92.3536C127.842 92.5488 128.158 92.5488 128.354 92.3536L131.536 89.1716C131.731 88.9763 131.731 88.6597 131.536 88.4645C131.34 88.2692 131.024 88.2692 130.828 88.4645L128 91.2929L125.172 88.4645C124.976 88.2692 124.66 88.2692 124.464 88.4645C124.269 88.6597 124.269 88.9763 124.464 89.1716L127.646 92.3536ZM127.5 79L127.5 92L128.5 92L128.5 79L127.5 79Z" fill="#7C3AED" />
</svg>