<svg width="272" height="108" viewBox="0 0 272 108" fill="none" xmlns="http://www.w3.org/2000/svg">
	<rect x="96.5" y="22.5" width="79" height="79" fill="#F5F3FF" stroke="#7C3AED" />
	<path d="M134.847 16.1534C134.432 16.1534 134.055 16.0753 133.717 15.919C133.379 15.7599 133.111 15.5312 132.912 15.233C132.713 14.9318 132.614 14.5682 132.614 14.142C132.614 13.767 132.688 13.4631 132.835 13.2301C132.983 12.9943 133.18 12.8097 133.428 12.6761C133.675 12.5426 133.947 12.4432 134.246 12.3778C134.547 12.3097 134.849 12.2557 135.153 12.2159C135.551 12.1648 135.874 12.1264 136.121 12.1009C136.371 12.0724 136.553 12.0256 136.666 11.9602C136.783 11.8949 136.841 11.7812 136.841 11.6193V11.5852C136.841 11.1648 136.726 10.8381 136.496 10.6051C136.268 10.3722 135.923 10.2557 135.46 10.2557C134.98 10.2557 134.604 10.3608 134.331 10.571C134.058 10.7812 133.866 11.0057 133.756 11.2443L132.801 10.9034C132.972 10.5057 133.199 10.196 133.483 9.97443C133.77 9.75 134.082 9.59375 134.42 9.50568C134.761 9.41477 135.097 9.36932 135.426 9.36932C135.636 9.36932 135.878 9.39489 136.151 9.44602C136.426 9.49432 136.692 9.59517 136.947 9.74858C137.206 9.90199 137.42 10.1335 137.591 10.4432C137.761 10.7528 137.847 11.1676 137.847 11.6875V16H136.841V15.1136H136.79C136.722 15.2557 136.608 15.4077 136.449 15.5696C136.29 15.7315 136.078 15.8693 135.814 15.983C135.55 16.0966 135.227 16.1534 134.847 16.1534ZM135 15.25C135.398 15.25 135.733 15.1719 136.006 15.0156C136.281 14.8594 136.489 14.6577 136.628 14.4105C136.77 14.1634 136.841 13.9034 136.841 13.6307V12.7102C136.798 12.7614 136.705 12.8082 136.56 12.8509C136.418 12.8906 136.253 12.9261 136.065 12.9574C135.881 12.9858 135.7 13.0114 135.524 13.0341C135.351 13.054 135.21 13.071 135.102 13.0852C134.841 13.1193 134.597 13.1747 134.369 13.2514C134.145 13.3253 133.963 13.4375 133.824 13.5881C133.688 13.7358 133.619 13.9375 133.619 14.1932C133.619 14.5426 133.749 14.8068 134.007 14.9858C134.268 15.1619 134.599 15.25 135 15.25Z" fill="#7C3AED" />
</svg>